<svg xmlns="http://www.w3.org/2000/svg" viewBox="0 0 200 200">
  <rect width="200" height="200" fill="#152535" rx="16"/>
  <!-- Left wing -->
  <path d="M100 85 C85 70 60 55 30 50 C45 65 55 72 65 78 C50 72 35 68 20 70 C38 80 55 80 68 82 C55 80 42 82 32 90 C50 88 65 85 78 88 C68 88 55 92 48 100 C62 95 75 90 88 92 L100 110Z" fill="#2dc5a2"/>
  <!-- Right wing (mirror) -->
  <path d="M100 85 C115 70 140 55 170 50 C155 65 145 72 135 78 C150 72 165 68 180 70 C162 80 145 80 132 82 C145 80 158 82 168 90 C150 88 135 85 122 88 C132 88 145 92 152 100 C138 95 125 90 112 92 L100 110Z" fill="#2dc5a2"/>
  <!-- Bird body/beak -->
  <path d="M95 108 C95 115 97 125 100 132 C103 125 105 115 105 108 C103 105 100 103 97 105Z" fill="#2dc5a2"/>
</svg>
